<?xml version="1.0" standalone="no"?>
<!DOCTYPE svg PUBLIC "-//W3C//DTD SVG 20010904//EN"
 "http://www.w3.org/TR/2001/REC-SVG-20010904/DTD/svg10.dtd">
<svg version="1.0" xmlns="http://www.w3.org/2000/svg"
 width="133.000000pt" height="200.000000pt" viewBox="0 0 133.000000 200.000000"
 preserveAspectRatio="xMidYMid meet">

<g transform="translate(0.000000,200.000000) scale(0.100000,-0.100000)"
fill="#000000" stroke="none">
<path d="M88 1963 c-10 -2 -21 -16 -24 -30 -4 -14 -4 -139 0 -277 8 -253 26
-1109 27 -1222 0 -34 -9 -100 -20 -148 -25 -105 -26 -128 -5 -189 21 -61 63
-97 114 -97 32 0 43 6 63 32 49 67 58 102 64 249 4 102 10 142 19 146 7 3 66
-49 136 -119 128 -130 211 -191 358 -265 81 -41 88 -43 176 -43 81 0 94 2 116
23 49 46 45 200 -7 245 -31 26 -64 28 -122 6 -40 -16 -46 -16 -87 0 -94 36
-396 262 -396 296 0 5 46 36 103 69 56 34 129 82 162 107 87 65 224 140 270
149 75 13 105 31 105 62 0 38 -40 105 -70 120 -82 42 -239 -20 -500 -196 -184
-124 -237 -154 -255 -147 -12 4 -15 30 -16 133 0 154 -13 387 -33 618 -9 94
-16 214 -16 268 0 170 -53 239 -162 210z"/>
</g>
</svg>
